<svg id="Logo" xmlns="http://www.w3.org/2000/svg" viewBox="0 0 631.3 461.69"><defs><style>.cls-1{fill:#fff;}.cls-2{fill:#e3000f;}</style></defs><title>Heineken - Open Your World V2</title><path class="cls-1" d="M430.79,174.25l0-.49h-3.28a4.35,4.35,0,0,0,4.63,4.9c3.24,0,5.2-2,5.2-5.21,0-1.87-.75-3.67-2.7-4.15v-.06c1.71-.68,2.16-2.47,2.16-4.13,0-2.8-1.63-4.59-4.46-4.59-3.21,0-4.22,2.35-4.12,5.19h3v-.37c0-.77.16-1.83,1.17-1.83s1.2,1,1.2,1.79c0,2-.79,2.33-2.69,2.33v3c2-.07,2.64.48,2.64,2.45,0,1-.09,2.48-1.51,2.48a1.31,1.31,0,0,1-1.31-1.37"/><polygon class="cls-1" points="425.21 160.79 415.71 160.79 415.71 163.81 420.44 163.81 414.95 178.38 418.59 178.38 425.21 160.79"/><path class="cls-1" d="M408.36,168.9v0a3.68,3.68,0,0,0,2.41-3.72,4.4,4.4,0,1,0-8.8,0,3.73,3.73,0,0,0,2.39,3.71v.06c-2.17.73-3.06,2.38-3.06,4.65a5,5,0,1,0,10.1,0c0-2.21-.83-4-3-4.65m-2.05-5.66c.95,0,1.07,1.22,1.07,1.87s0,2-1.07,2c-.87,0-1-1.35-1-2s.14-1.85,1-1.85m0,12.37c-1.21,0-1.46-1.59-1.46-2.48s.25-2.55,1.44-2.55,1.54,1.67,1.54,2.55-.34,2.48-1.52,2.48"/><polygon class="cls-1" points="396.53 160.79 391.49 160.79 391.49 163.81 393.17 163.81 393.17 178.38 396.53 178.38 396.53 160.79"/><polygon class="cls-1" points="199.81 160.79 192.11 160.79 192.11 178.38 199.84 178.38 199.84 175.1 195.91 175.1 195.91 171.14 199.33 171.14 199.33 167.88 195.91 167.88 195.91 164.05 199.81 164.05 199.81 160.79"/><path class="cls-1" d="M233.84,174.23a2.2,2.2,0,0,0-2.24,2.2,2.23,2.23,0,0,0,2.24,2.23,2.19,2.19,0,0,0,2.17-2.23,2.17,2.17,0,0,0-2.17-2.2"/><polygon class="cls-1" points="229.02 160.79 219.2 160.79 219.2 164.05 222.19 164.05 222.19 178.38 226.02 178.38 226.02 164.05 229.02 164.05 229.02 160.79"/><path class="cls-1" d="M213.88,164.75v-3.4a7.43,7.43,0,0,0-3.41-.83,4.83,4.83,0,0,0-5,5.16c0,2.54,1.34,3.86,3.55,5.2,1.06.74,2.26,1.22,2.26,2.56a2,2,0,0,1-2.22,1.93,5,5,0,0,1-2.88-.95v3.34a6.52,6.52,0,0,0,3.29.89,5.19,5.19,0,0,0,5.55-5.5c0-4.76-5.81-4.94-5.81-7.82a1.71,1.71,0,0,1,1.91-1.73,4.64,4.64,0,0,1,2.8,1.14"/><path class="cls-1" d="M285.27,67.88c-17.28.17-48.4,1.18-62.33,1.65-4.39.15-7,.34-7,.34a4,4,0,0,0-3.35,2.27c-.33.78-.55,1.51-.55,1.51s-.25.72-.44,1.55A4,4,0,0,0,212.94,79s2,1.7,5.48,4.41c11,8.57,35.57,27.67,49.45,38-5.18,16.49-13.84,46.4-17.69,59.79-1.21,4.22-1.84,6.78-1.84,6.78a4,4,0,0,0,1.13,3.89c.64.56,1.27,1,1.27,1s.61.47,1.34.9a4,4,0,0,0,4-.13s2.24-1.39,5.88-3.85c11.54-7.8,37.31-25.28,51.4-35.3,14.08,10,39.85,27.5,51.39,35.3,3.64,2.46,5.88,3.85,5.88,3.85a4,4,0,0,0,4,.13,15.86,15.86,0,0,0,1.34-.9s.63-.43,1.27-1a4,4,0,0,0,1.13-3.89s-.63-2.56-1.85-6.78c-3.85-13.39-12.51-43.3-17.69-59.79,13.88-10.3,38.46-29.41,49.45-38,3.46-2.7,5.48-4.41,5.48-4.41a4,4,0,0,0,1.37-3.81c-.19-.83-.45-1.55-.45-1.55s-.22-.73-.55-1.52a4,4,0,0,0-3.35-2.27s-2.63-.2-7-.34c-13.93-.47-45-1.48-62.33-1.65C336,51.5,325.46,22.21,320.7,9.11c-1.5-4.13-2.5-6.57-2.5-6.57A4,4,0,0,0,315,.06C314.17,0,313.4,0,313.4,0s-.77,0-1.61.05a4,4,0,0,0-3.2,2.48s-1,2.44-2.5,6.57c-4.75,13.1-15.33,42.38-20.83,58.77Z"/><path class="cls-2" d="M276.4,118.63l-22.22,68.28a.29.29,0,0,0,.1.32s.16.14.34.27.36.24.36.24a.29.29,0,0,0,.34,0l58.08-42.23,58.08,42.23a.29.29,0,0,0,.34,0s.19-.11.36-.24.34-.27.34-.27a.28.28,0,0,0,.1-.32l-22.22-68.29,58.11-42.18a.29.29,0,0,0,.11-.32s0-.21-.12-.42-.15-.41-.15-.41a.28.28,0,0,0-.27-.2l-71.81,0L314.11,6.82a.29.29,0,0,0-.27-.2s-.21,0-.44,0-.43,0-.43,0a.29.29,0,0,0-.28.2L290.53,75.12l-71.81,0a.29.29,0,0,0-.28.2s-.09.2-.15.41-.12.42-.12.42a.29.29,0,0,0,.11.32Z"/><path class="cls-1" d="M616.62,221.38a14.68,14.68,0,1,0,14.68,14.69A14.68,14.68,0,0,0,616.62,221.38Zm0,26.41a11.72,11.72,0,1,1,11.69-11.72A11.75,11.75,0,0,1,616.62,247.79Z"/><path class="cls-1" d="M620.57,236a4.18,4.18,0,0,0,2.37-4c0-3.37-3-4.41-4.82-4.41h-7.57v15.82h3.62v-6.18h1.36c1.83,0,2.89.49,3.4,2.18a30.76,30.76,0,0,0,1.3,4h3.94a12.62,12.62,0,0,1-1.46-3.86A4.51,4.51,0,0,0,620.57,236Zm-3.46-1.91h-2.9v-3.64h2.55c1.11,0,2.44.46,2.44,1.73A1.93,1.93,0,0,1,617.11,234.13Z"/><path class="cls-1" d="M161.85,308.54c-4.16,4.17-9.57,8.32-14.89,10-5,1.62-19.33,2.87-23.54-9-.91-2.56-.17-3.35,2.14-4,3.45-1,12.35-3.64,21.74-7.16a112.3,112.3,0,0,0,18.5-8.67c4.26-2.8,4.9-6.74,3-11-6-13.44-19.51-27.51-42-23.23C109,258.93,96.15,275,96.15,293.42c0,22.79,13.73,36.12,31.21,40.25,16.16,3.85,35.16-4,43.28-17.16C173.87,311.44,164.79,305.42,161.85,308.54ZM121.38,290.6c-1.75-4.83-.35-19.62,7.8-22.42,8.57-2.94,13.84,1.48,16.4,10.12,1,3.2.74,6.58-.31,7.85-1.52,1.84-4.23,2.95-6.67,3.76L132.18,292C125.87,294.19,122.86,294.62,121.38,290.6Z"/><path class="cls-1" d="M371.19,308.54c-4.16,4.17-9.57,8.32-14.89,10-5,1.62-19.33,2.87-23.54-9-.91-2.56-.17-3.35,2.14-4,3.45-1,12.35-3.64,21.74-7.16a112.28,112.28,0,0,0,18.5-8.67c4.26-2.8,4.9-6.74,3-11-6-13.44-19.51-27.51-42-23.23-17.87,3.41-30.67,19.5-30.67,37.9,0,22.79,13.73,36.12,31.21,40.25,16.15,3.85,35.15-4,43.28-17.16C383.2,311.44,374.13,305.42,371.19,308.54ZM330.71,290.6c-1-2.89-1-9.34,1-14.66,1.33-3.57,3.31-6.36,6.79-7.76a11,11,0,0,1,9.89.37c3,1.73,5.14,5.14,6.5,9.75,1,3.2.74,6.58-.3,7.85-1.52,1.84-3.89,2.77-6.67,3.76s-5.25,1.79-6.42,2.16C335.16,294.06,332.19,294.62,330.71,290.6Z"/><path class="cls-1" d="M530.77,308.54c-4.16,4.17-9.57,8.32-14.89,10-5,1.62-19.33,2.87-23.54-9-.91-2.56-.17-3.35,2.14-4,3.46-1,12.35-3.64,21.74-7.16a112.23,112.23,0,0,0,18.5-8.67c4.26-2.8,4.9-6.74,3-11-6-13.44-19.51-27.51-42-23.23-17.87,3.41-30.67,19.5-30.67,37.9,0,22.79,13.73,36.12,31.21,40.25,16.16,3.85,35.16-4,43.28-17.16C542.78,311.44,533.7,305.42,530.77,308.54ZM490.29,290.6c-1-2.89-1-9.34,1-14.66,1.33-3.57,3.31-6.36,6.79-7.76a11,11,0,0,1,9.89.37c3,1.73,5.14,5.14,6.5,9.75,1,3.2.74,6.58-.3,7.85-1.52,1.84-3.89,2.77-6.67,3.76s-5.25,1.79-6.42,2.16C494.74,294.06,491.77,294.62,490.29,290.6Z"/><path class="cls-1" d="M60,312.86c0,3.05-1,6.4-3.32,7.46l-5.1,2.3a2,2,0,0,0-1.17,2.1,4.62,4.62,0,0,0,.07.76l.6,5.79c.27,1.57,1.34,1.83,3.43,1.83H91.46c2.08,0,3.16-.26,3.43-1.83l.6-5.79a4.66,4.66,0,0,0,.07-.76,2,2,0,0,0-1.17-2.1l-5.1-2.3c-2.35-1.05-3.32-4.4-3.32-7.46v-64c0-3.05,1-6.4,3.32-7.46l5.1-2.31a2,2,0,0,0,1.17-2.1,4.62,4.62,0,0,0-.07-.76l-.6-4.35c-.27-1.57-1.34-1.83-3.43-1.83H56.26c-2.08,0-3.16.26-3.43,1.83l-.6,4.35a4.6,4.6,0,0,0-.07.76,2,2,0,0,0,1.17,2.1l4.15,2.31c2.37,1.36,2.53,4.4,2.53,7.46v17.84A2.25,2.25,0,0,1,57.78,269h-20a2.25,2.25,0,0,1-2.25-2.25V248.9c0-3.05.16-6.1,2.53-7.46l4.16-2.31a2,2,0,0,0,1.17-2.1,4.63,4.63,0,0,0-.07-.76l-.6-4.35c-.27-1.57-1.34-1.83-3.43-1.83H4.1c-2.09,0-3.16.26-3.43,1.83l-.6,4.35A4.62,4.62,0,0,0,0,237a2,2,0,0,0,1.17,2.1l5.1,2.31c2.35,1.05,3.32,4.4,3.32,7.46v64c0,3.05-1,6.4-3.32,7.46l-5.1,2.3A2,2,0,0,0,0,324.72a4.66,4.66,0,0,0,.07.76l.6,5.79c.27,1.57,1.34,1.83,3.43,1.83H41c2.08,0,3.16-.26,3.43-1.83l.6-5.79a4.64,4.64,0,0,0,.07-.76,2,2,0,0,0-1.17-2.1l-5.1-2.3c-2.36-1.05-3.32-4.4-3.32-7.46v-26a2.25,2.25,0,0,1,2.25-2.25h20A2.25,2.25,0,0,1,60,286.86Z"/><ellipse class="cls-1" cx="192.22" cy="240.88" rx="13.32" ry="12.86"/><path class="cls-1" d="M177.64,333.09c-2,0-3-.25-3.29-1.76l-.58-5.77a4,4,0,0,1,0-.73,2,2,0,0,1,1.1-2l4-2.21c2.2-1.06,3.18-4.22,3.18-7.15V276.95c0-3.05-.52-7-3.21-8.3l-2.54-1.46a2,2,0,0,1-1.17-2.1,4.6,4.6,0,0,1,.07-.76l.6-4.34c.27-1.58,1.34-1.83,3.43-1.83H204.1a2.25,2.25,0,0,1,2.25,2.25v53.07c0,2.93,1,6.09,3.18,7.15l4,2.21a2,2,0,0,1,1.1,2,4,4,0,0,1,0,.73l-.57,5.77c-.26,1.51-1.29,1.76-3.29,1.76Z"/><path class="cls-1" d="M253.12,262l3.93-1.91c5-2.34,14.77-6.54,22.85-4,7,2.23,13,7.32,13,20.66v40.41c0,1.72.08,2.43.88,2.87,1.07.59,2.94-1.17,4.73-2.09s2.81.16,3.91,1.38c1,1.07,2.13,2.58,1.19,4.56-3,6.25-9.67,9.85-17.5,9.85-7.39,0-16.81-4.24-16.81-15.32V279.58c0-5.95-4.31-8-7.66-7.59-5.06.63-8.74,4.86-8.74,12.4v29.08c0,2.93,1,6.09,3.18,7.15l4,2.21a2,2,0,0,1,1.1,2,4,4,0,0,1,0,.73l-.58,5.77c-.26,1.51-1.29,1.76-3.29,1.76h-33c-2,0-3-.25-3.29-1.76l-.57-5.77a4,4,0,0,1,0-.73,2,2,0,0,1,1.1-2l4-2.21c2.2-1.06,3.18-4.22,3.18-7.15V276.95c0-3.05-.52-7-3.2-8.3l-2.54-1.46a2,2,0,0,1-1.17-2.1,4.47,4.47,0,0,1,.07-.76l.6-4.34c.27-1.58,1.34-1.83,3.43-1.83h23.49a3.11,3.11,0,0,1,3.1,2.25Z"/><path class="cls-1" d="M575.57,262l3.93-1.91c5-2.34,14.77-6.54,22.85-4,7,2.23,13,7.32,13,20.66v40.41c0,1.72.08,2.43.88,2.87,1.07.59,2.95-1.17,4.73-2.09s2.81.16,3.91,1.38c1,1.07,2.13,2.58,1.18,4.56-3,6.25-9.67,9.85-17.5,9.85-7.39,0-16.81-4.24-16.81-15.32V279.58c0-5.95-4.31-8-7.66-7.59-5.06.63-8.74,4.86-8.74,12.4v29.08c0,2.93,1,6.09,3.18,7.15l4,2.21a2,2,0,0,1,1.1,2,4.07,4.07,0,0,1,0,.73l-.58,5.77c-.25,1.51-1.29,1.76-3.29,1.76h-33c-2,0-3-.25-3.29-1.76l-.57-5.77a4,4,0,0,1,0-.73,2,2,0,0,1,1.09-2l4-2.21c2.2-1.06,3.18-4.22,3.18-7.15V276.95c0-3.05-.52-7-3.2-8.3l-2.54-1.46a2,2,0,0,1-1.17-2.1,4.64,4.64,0,0,1,.07-.76l.6-4.34c.27-1.58,1.34-1.83,3.43-1.83H571.7a3.12,3.12,0,0,1,3.1,2.25Z"/><path class="cls-1" d="M455.92,314.47a16.29,16.29,0,0,0,6.1,6.14l4,2.21a2,2,0,0,1,1.1,2,4.11,4.11,0,0,1,0,.73l-.57,5.77c-.26,1.51-1.29,1.76-3.29,1.76H443.22c-3.41,0-3.67-1-5.21-3.77l-16.73-30.46-6.28,6v8.57c0,2.93,1.38,6,3.66,7.15l4,2.21a2,2,0,0,1,1.1,2,3.91,3.91,0,0,1,0,.73l-.58,5.77c-.26,1.51-1.29,1.76-3.29,1.76h-33c-2,0-3-.25-3.29-1.76l-.57-5.77a3.84,3.84,0,0,1,0-.73,2,2,0,0,1,1.1-2l4-2.21c2.2-1.06,3.18-4.22,3.18-7.15V248.08c0-2.93-.91-6-3.18-7.15l-4-2.21a2,2,0,0,1-1.1-2,3.82,3.82,0,0,1,0-.73l.57-4.11c.26-1.51,1.29-1.76,3.29-1.76h23.95a4.26,4.26,0,0,1,4.26,4.27V284l10.65-9.61c1.52-1.31,4-3.49,5-4.45s1.17-2.41-.21-3l-3.76-1.7a1.8,1.8,0,0,1-1.07-1.91,4.18,4.18,0,0,1,.07-.69l.55-5.27c.24-1.43,1.22-1.67,3.12-1.67H458c1.9,0,2.88.23,3.12,1.67l.55,5.27a6.46,6.46,0,0,1,.06.69c.06,1.14-1.29,1.69-2.12,2.07a20.37,20.37,0,0,0-3.89,1.65,39,39,0,0,0-6.32,4.87l-11.06,10.61Z"/><path class="cls-1" d="M123,445.09c-10.44,0-19.25-8.41-19.25-18.37V410.56a18.38,18.38,0,0,1,36.76,0v6.11a4,4,0,0,1-3.88,4l-25,4.84v1.25c0,5.58,5.3,10.46,11.34,10.46,2.21,0,6.31-.48,8.82-3.68a4.22,4.22,0,0,1,3.24-1.64,4.06,4.06,0,0,1,4.05,3.86,4.42,4.42,0,0,1-.76,2.4c-3.33,4.38-9.06,7-15.35,7Zm-.88-45a10.47,10.47,0,0,0-10.46,10.46V417l20.92-3.68v-2.81a10.47,10.47,0,0,0-10.46-10.46Z"/><path class="cls-1" d="M186.2,444.21a3.83,3.83,0,0,1-4-4v-29.7a10.46,10.46,0,1,0-20.91,0v29.7a4,4,0,0,1-7.92,0V426.79a.63.63,0,0,1,0-.2v-29.1a3.83,3.83,0,0,1,4-4,3.93,3.93,0,0,1,3.59,2.21,18.37,18.37,0,0,1,29.24,14.81v29.7a3.83,3.83,0,0,1-4,4Z"/><path class="cls-1" d="M596.83,445.09a18.4,18.4,0,0,1-18.38-18.37V410.56a18.4,18.4,0,0,1,18.38-18.37A16.94,16.94,0,0,1,607.28,396V377.35a3.84,3.84,0,0,1,4-4,3.88,3.88,0,0,1,4,4v62.47a3.83,3.83,0,0,1-4,4,3.93,3.93,0,0,1-3.6-2.23,18.37,18.37,0,0,1-10.82,3.54Zm0-45a10.48,10.48,0,0,0-10.46,10.46v16.16a10.46,10.46,0,1,0,20.92,0V410.56a10.47,10.47,0,0,0-10.45-10.46Z"/><path class="cls-1" d="M24.54,445.09A18.4,18.4,0,0,1,6.16,426.71V410.56a18.38,18.38,0,0,1,36.76,0v16.16a18.4,18.4,0,0,1-18.38,18.38Zm0-45a10.47,10.47,0,0,0-10.46,10.46v16.16a10.46,10.46,0,1,0,20.92,0V410.56a10.47,10.47,0,0,0-10.46-10.46Z"/><path class="cls-1" d="M59.14,461.69a3.83,3.83,0,0,1-4-4V426.88a.54.54,0,0,1-.09-.29v-29.1a3.83,3.83,0,0,1,4-4,3.87,3.87,0,0,1,3.59,2.24,18.37,18.37,0,0,1,29.29,14.78v16.16a18.4,18.4,0,0,1-18.38,18.38,17,17,0,0,1-10.46-3.78v16.43a3.83,3.83,0,0,1-4,4Zm14.42-61.6A10.47,10.47,0,0,0,63.1,410.56v16.16a10.46,10.46,0,1,0,20.92,0V410.56a10.47,10.47,0,0,0-10.46-10.46Z"/><path class="cls-1" d="M452.51,444.65a4,4,0,0,1-3.74-3.25l-8.65-30.86-8.58,30.86c-.69,2.08-2.08,3.25-3.82,3.25a4,4,0,0,1-3.73-3.24L412.47,398.2a2.85,2.85,0,0,1-.23-1.28,4,4,0,0,1,4-3.87A3.8,3.8,0,0,1,420,395.8l7.87,30.56,8.52-30.49a4.14,4.14,0,0,1,3.74-3.25c1.67,0,3.09,1.19,3.79,3.16l8.47,30.58,7.91-30.47a3.65,3.65,0,0,1,3.65-2.84,3.87,3.87,0,0,1,4,3.87,4.51,4.51,0,0,1-.13,1.2l-11.52,43.26a4.13,4.13,0,0,1-3.83,3.27Z"/><path class="cls-1" d="M334.52,445.09a18.39,18.39,0,0,1-18.38-18.37V397a3.83,3.83,0,0,1,4-4,3.87,3.87,0,0,1,4,4v29.7a10.46,10.46,0,1,0,20.91,0V397a4,4,0,0,1,7.92,0v29.7a18.39,18.39,0,0,1-18.37,18.38Z"/><path class="cls-1" d="M234.89,461.69a3.83,3.83,0,0,1-3.87-5l0-.17,6.08-16.46-15-41.74a5.64,5.64,0,0,1-.25-1.41,4,4,0,0,1,7.72-1.31l11.81,33,12.27-32.92a3.79,3.79,0,0,1,3.62-2.61,4,4,0,0,1,4.13,3.87,3.32,3.32,0,0,1-.4,1.55l-22.58,60.6a3.78,3.78,0,0,1-3.61,2.62Z"/><path class="cls-1" d="M494.59,445.09a18.39,18.39,0,0,1-18.37-18.37V410.56a18.38,18.38,0,0,1,36.75,0v16.16a18.4,18.4,0,0,1-18.38,18.38Zm0-45a10.47,10.47,0,0,0-10.45,10.46v16.16a10.46,10.46,0,1,0,20.92,0V410.56a10.48,10.48,0,0,0-10.46-10.46Z"/><path class="cls-1" d="M371.15,444.21a3.83,3.83,0,0,1-4-4V397.49a3.83,3.83,0,0,1,4-4,3.93,3.93,0,0,1,3.18,1.53,15.6,15.6,0,0,1,7.91-2.8.66.66,0,0,1,.23-.05l.69,0h1.19a4,4,0,0,1,0,7.91h-.55c-5.56,0-8.65,3.89-8.69,10.93v29.23a3.84,3.84,0,0,1-4,4Z"/><path class="cls-1" d="M566.59,445.09a3.72,3.72,0,0,1-1.63-.3,8.44,8.44,0,0,1-1.58-.9c-4.41-2.79-7-8.16-7-14.72v-51a4,4,0,0,1,7.93,0v51c0,3.09,1,7.12,3.65,8.29a4,4,0,0,1,2.46,3.68,4,4,0,0,1-3.87,4Z"/><path class="cls-1" d="M286,445.09a18.39,18.39,0,0,1-18.37-18.37V410.56a18.37,18.37,0,1,1,36.75,0v16.16A18.39,18.39,0,0,1,286,445.09Zm0-45a10.47,10.47,0,0,0-10.46,10.46v16.16a10.46,10.46,0,1,0,20.91,0V410.56A10.47,10.47,0,0,0,286,400.09Z"/><path class="cls-1" d="M529.09,444.21a3.83,3.83,0,0,1-4-4V397.49a3.83,3.83,0,0,1,4-4,3.93,3.93,0,0,1,3.18,1.53,15.6,15.6,0,0,1,7.92-2.8.58.58,0,0,1,.22-.05l.69,0h1.19a4,4,0,1,1,0,7.91h-.55c-5.56,0-8.64,3.89-8.69,10.93v29.23a3.84,3.84,0,0,1-4,4Z"/></svg>